<?xml version="1.0" encoding="UTF-8"?>
<!-- Generator: Adobe Illustrator 14.0.0, SVG Export Plug-In . SVG Version: 6.00 Build 43363)  -->
<!DOCTYPE svg PUBLIC "-//W3C//DTD SVG 1.1//EN" "http://www.w3.org/Graphics/SVG/1.1/DTD/svg11.dtd">
<svg version="1.1" id="레이어_1" xmlns="http://www.w3.org/2000/svg" xmlns:xlink="http://www.w3.org/1999/xlink" x="0px" y="0px" width="341px" height="591px" viewBox="0 0 341 591" enable-background="new 0 0 341 591" xml:space="preserve">
<path id="path2841" d="M44.627,575.563c-5.515-1.57-13.113-8.407-16.265-14.633c-0.881-1.74-1.93-5.028-2.33-7.306  c-0.87-4.945-3.483-11.77-5.937-15.504c-3.893-5.925-4.3-7.766-2.497-11.302c0.578-1.134,1.21-2.784,1.404-3.667  c0.193-0.883,1.071-2.382,1.95-3.329c0.879-0.948,2.916-3.338,4.527-5.312c4.021-4.924,7.39-7.13,10.392-6.807  c2.256,0.243,3.944-0.684,3.944-2.165c0-0.601,2.67-2.786,4.748-3.886c0.677-0.359,2.57-0.727,4.209-0.817  c2.385-0.132,3.55-0.559,5.844-2.139c3.613-2.488,8.343-7.089,11.262-10.956c1.24-1.643,2.983-3.363,3.873-3.823  s3.018-2.211,4.729-3.891c1.712-1.68,4.132-3.663,5.379-4.407s3.084-2.145,4.083-3.111s2.151-1.759,2.561-1.759  s1.311-0.603,2.002-1.339c0.692-0.736,2.378-1.75,3.747-2.252s3.026-1.461,3.684-2.131c0.657-0.669,1.91-1.374,2.785-1.566  c0.874-0.191,2.018-0.822,2.541-1.4s1.146-1.052,1.382-1.052c0.237,0,1.513-0.73,2.836-1.623c1.323-0.894,2.665-1.624,2.983-1.624  c0.317,0,1.552-1.434,2.741-3.187c2.697-3.971,6.881-7.674,11.204-9.917l3.317-1.722l0.395-5.979  c0.528-8.001,0.348-19.463-0.31-19.694c-0.289-0.102-1.021-1.156-1.626-2.344c-0.997-1.953-1.024-2.275-0.293-3.393  c0.759-1.158,0.71-1.307-0.798-2.422c-0.892-0.658-1.748-1.896-1.925-2.78c-0.18-0.895-0.667-1.593-1.113-1.593  c-0.438,0-0.919-0.473-1.07-1.052c-0.151-0.578-0.772-1.126-1.382-1.217c-1.29-0.193-1.623-0.757-2.806-4.736  c-0.481-1.62-1.809-4.565-2.95-6.545c-2.065-3.582-2.069-3.604-0.933-4.317c0.628-0.395,2.116-1.006,3.307-1.357  c2.054-0.607,2.174-0.761,2.345-3.019c0.099-1.308-0.307-4.082-0.901-6.166c-0.595-2.083-1.742-6.101-2.549-8.929  c-0.807-2.827-1.535-6.637-1.619-8.465c-0.084-1.829-0.418-3.821-0.743-4.429c-0.949-1.774-0.671-6.093,0.564-8.751  c1.05-2.258,1.787-5.485,3.165-13.849c0.724-4.393,4.089-14.458,5.671-16.966l1.268-2.007l-1.234-2.435  c-3.094-6.103-7.107-10.74-9.296-10.74c-2.014,0-4.14-3.841-4.416-7.981c-0.125-1.86-0.425-3.382-0.666-3.382  c-0.242,0-1.31-0.82-2.372-1.822c-1.306-1.231-1.933-2.306-1.933-3.311c0-0.882-0.661-2.242-1.623-3.337  c-0.894-1.018-1.624-2.17-1.624-2.561c0-0.392-0.683-1.662-1.518-2.822c-6.854-9.53-13.893-20.099-15.936-23.926  c-1.923-3.604-3.074-7.782-3.494-12.681c-0.177-2.058-0.633-3.917-1.046-4.26c-0.403-0.335-0.733-1.031-0.733-1.549  c0-0.517-0.853-2.784-1.895-5.038c-1.041-2.255-1.897-4.542-1.902-5.082c-0.021-2.489-0.917-2.133-7.838,3.118  c-3.869,2.936-7.339,5.345-7.711,5.354s-0.676,0.225-0.676,0.48c0,0.255-1.968,1.473-4.371,2.705  c-4.911,2.518-7.668,2.849-10.781,1.294c-6.252-3.124-4.224-12.089,4.798-21.206c2.569-2.597,5.829-5.395,7.242-6.217  c1.414-0.822,2.57-1.709,2.57-1.971s-0.791-0.876-1.759-1.365c-0.967-0.489-2.61-1.53-3.652-2.313  c-1.456-1.096-2.519-1.425-4.6-1.425h-2.705l-0.018-1.895c-0.027-2.974-1.049-4.329-3.266-4.329c-1.325,0-1.982-0.283-2.194-0.946  c-0.167-0.521-0.565-1.495-0.886-2.164s-0.422-1.378-0.225-1.575s-0.492-0.938-1.532-1.644c-1.84-1.25-1.891-1.382-1.891-4.855  c0-1.964-0.282-4.513-0.628-5.664c-0.474-1.582-0.475-2.428-0.003-3.463c0.509-1.117,0.476-1.427-0.182-1.679  c-0.442-0.17-0.674-0.521-0.513-0.782s0.008-1.423-0.34-2.584c-0.586-1.957-0.504-2.353,1.133-5.423  c0.971-1.821,1.975-3.312,2.23-3.312c0.849,0,0.482-1.606-0.616-2.705c-0.596-0.596-1.077-1.387-1.07-1.759s0.477-0.071,1.045,0.668  c1.211,1.575,1.21,1.576,2.446-1.724c0.523-1.399,1.411-2.959,1.972-3.466c1.436-1.3,1.276-1.731-0.74-2.017  c-1.188-0.167-0.88-0.243,0.947-0.234c4.01,0.019,3.977,0.033,4.883-2.135c0.461-1.104,1.316-2.452,1.901-2.997  c0.762-0.71,1.064-1.71,1.07-3.539c0.005-1.402,0.252-2.914,0.549-3.361c0.378-0.567,0.434-0.102,0.184,1.55  c-0.338,2.229-0.292,2.343,0.804,2.029c0.639-0.183,1.709-0.487,2.379-0.678c0.669-0.19,2.492-1.159,4.05-2.152  c2.062-1.315,3.151-2.485,4.006-4.303c1.502-3.195,3.205-4.063,5.448-2.775c1.599,0.918,1.654,0.907,3.838-0.698  c2.452-1.803,3.971-2.032,5.553-0.837c0.667,0.505,1.676,0.683,2.769,0.488c1.32-0.234,1.944-0.042,2.691,0.83  c0.534,0.624,1.274,1.135,1.644,1.135c1.322,0,4.374,3.236,4.618,4.896c0.133,0.905,0.038,1.771-0.21,1.924  c-0.792,0.489-0.506,2.92,0.344,2.92c0.462,0,0.672,0.32,0.502,0.763c-0.172,0.449,0.138,0.899,0.752,1.095  c0.574,0.183,2.053,1.263,3.286,2.4c1.716,1.585,2.241,2.47,2.241,3.776c0,1.7,0.01,1.706,2.877,1.706  c3.475,0,9.042,0.972,9.975,1.74c0.899,0.741,0.854,2.125-0.132,4.016c-1.132,2.17-1.023,2.733,0.608,3.143  c1.037,0.26,1.744,0.056,2.605-0.753c0.654-0.615,1.912-1.11,2.821-1.11c0.953,0,2.051-0.454,2.619-1.082  c0.949-1.049,0.945-1.083-0.12-1.083c-1.361,0-2.54-1.336-2.128-2.411c0.508-1.323,4.059-2.459,7.689-2.459  c2.939,0,3.463-0.15,3.758-1.082c0.189-0.595,0.537-1.082,0.774-1.082c0.236,0,1.291-0.67,2.344-1.488  c1.054-0.818,2.59-1.975,3.415-2.57c0.826-0.595,2.043-1.662,2.706-2.371c0.662-0.709,1.655-1.317,2.206-1.353  c1.383-0.089,7.765-4.652,7.765-5.554c0-0.403,0.413-0.733,0.918-0.733c1.028,0,3.285-1.448,9.634-6.182  c15.422-11.498,24.969-22.883,27.658-32.98c1.105-4.151,0.941-6.899-0.574-9.609c-0.729-1.305-1.49-3.405-1.692-4.668  c-0.331-2.07-0.259-2.297,0.735-2.297c1.422,0,5.74,3.42,8.507,6.735c1.189,1.425,2.711,3.185,3.381,3.908  c0.669,0.725,1.228,1.487,1.24,1.695s0.937,1.418,2.054,2.688l2.03,2.311l5.387-3.812c2.963-2.097,5.753-4.113,6.199-4.483  c0.691-0.571,5.8-4.269,11.374-8.23c0.838-0.596,3.999-2.909,7.025-5.141c3.026-2.232,6.07-4.424,6.763-4.87  c0.693-0.447,3.736-2.639,6.763-4.871c3.026-2.231,6.029-4.416,6.675-4.854c0.646-0.438,2.999-2.144,5.231-3.79  s4.667-3.412,5.411-3.923c0.744-0.512,3.179-2.277,5.411-3.924c3.495-2.578,10.565-7.697,15.712-11.376  c0.833-0.596,3.99-2.909,7.017-5.141c3.027-2.232,6.07-4.424,6.763-4.87c0.693-0.447,3.728-2.639,6.744-4.87  c7.097-5.253,9.852-6.659,13.567-6.931c2.289-0.166,3.705,0.083,6.003,1.057c7.226,3.062,10.418,8.754,8.499,15.157  c-0.594,1.982-0.54,2.198,0.913,3.716l1.543,1.611h-2.048c-1.52,0-2.429,0.385-3.516,1.487c-0.807,0.819-4.46,3.559-8.118,6.088  c-7.242,5.008-7.26,5.02-14.94,10.552c-2.892,2.084-5.655,4.032-6.141,4.329c-0.485,0.298-1.005,0.672-1.153,0.83  c-0.261,0.278-6.54,4.795-9.003,6.476c-0.653,0.446-3.551,2.516-6.438,4.6c-2.888,2.083-5.647,4.031-6.133,4.329  c-0.485,0.297-1.005,0.678-1.153,0.844c-0.309,0.346-7.046,5.234-8.904,6.461c-1.121,0.739-5.393,3.782-9.699,6.908  c-0.929,0.675-2.314,1.648-3.078,2.164c-0.765,0.517-3.321,2.346-5.682,4.065c-4.065,2.961-11.921,8.582-15.813,11.315  c-0.979,0.688-2.596,1.859-3.592,2.604c-0.995,0.744-3.192,2.327-4.881,3.518c-1.689,1.19-4.036,2.859-5.217,3.709l-2.146,1.546  l1.367,2.446c1.476,2.639,1.822,5.556,0.662,5.556c-0.898,0-5.247-3.178-5.247-3.834c0-1.526-3.149,0.264-11.905,6.765  c-1.637,1.216-3.373,2.454-3.858,2.752c-0.485,0.297-2.406,1.637-4.268,2.976c-1.861,1.34-3.93,2.801-4.598,3.247  c-0.667,0.446-2.927,2.018-5.021,3.492c-3.568,2.514-3.759,2.75-3.042,3.773c0.421,0.601,0.765,1.654,0.765,2.341  c0,1.323,1.679,2.402,2.042,1.313c0.333-0.998,2.19-0.749,2.792,0.374c0.987,1.846,2.108,8.407,1.601,9.368  c-0.265,0.501-0.481,3.961-0.481,7.688v6.776l3.808,4.487c12.485,14.714,20.637,25.843,21.369,29.175  c0.281,1.282-0.122,2.279-2.202,5.437l-2.547,3.865l0.636,2.84c1.194,5.338,2.731,16.197,2.738,19.349  c0.006,2.536-0.257,3.495-1.354,4.933c-1.56,2.044-6.852,6.261-9.056,7.216c-2.219,0.961-9.442,2.678-13.012,3.093l-3.136,0.364  l2.258,4.151c4.442,8.169,5.47,10.191,8.428,16.598c4.306,9.325,7.004,16.286,8.319,21.46c0.631,2.482,2.151,7.437,3.379,11.008  c2.201,6.402,2.236,6.626,2.53,15.963c0.238,7.597,0.484,9.813,1.244,11.202c0.521,0.952,0.947,2.436,0.947,3.296  c0,1.349,0.29,1.651,2.096,2.192c1.208,0.362,3.279,1.774,4.888,3.333c1.535,1.487,3.01,2.704,3.278,2.704s0.656,0.532,0.863,1.184  c0.206,0.65,1.829,2.537,3.605,4.193c3.261,3.038,21.304,23.713,30.728,35.207c2.805,3.423,6.64,8.05,8.521,10.282  c1.881,2.231,3.596,4.302,3.811,4.6c0.215,0.297,1.147,1.515,2.071,2.705c2.585,3.332,3.271,4.994,5.396,13.07  c2.249,8.547,2.25,8.173-0.087,25.079c-1.266,9.157-3.289,20.239-5.333,29.221c-2.01,8.828-6.438,19.644-9.575,23.389l-2.141,2.556  l0.823,4.209c0.452,2.314,0.766,4.683,0.695,5.262c-0.095,0.789,0.756,1.548,3.391,3.019c1.935,1.081,4.369,2.457,5.411,3.058  s3.354,1.914,5.141,2.92c8.977,5.055,9.729,5.636,9.903,7.641c0.454,5.271-10.16,9.196-24.813,9.176  c-5.057-0.007-6.922-0.236-9.49-1.166c-7.131-2.581-8.475-2.814-16.727-2.904c-7.147-0.078-8.377-0.228-10.297-1.246  c-1.203-0.639-3.076-1.132-4.18-1.1c-1.396,0.039-2.4-0.318-3.321-1.185c-1.793-1.685-3.199-6.142-2.759-8.746  c0.225-1.329,0.014-3.103-0.598-5.043c-0.815-2.586-0.854-3.399-0.278-5.966c0.365-1.635,1.259-3.849,1.985-4.918  c1.059-1.561,1.32-2.63,1.32-5.403c0-3.779,0.609-5.92,2.161-7.587c0.739-0.794,1.173-2.593,1.628-6.745  c0.341-3.115,0.762-5.894,0.937-6.177c0.175-0.281,0.515-4.917,0.756-10.3s0.678-11.248,0.97-13.034  c0.48-2.944,0.406-3.508-0.797-6.054c-0.736-1.561-1.326-3.796-1.326-5.031c0-3.308-1.692-4.648-6.358-5.036  c-5.391-0.449-7.097-1.145-10.67-4.351l-3.23-2.898l-1.57,3.194c-0.864,1.757-2.034,5.275-2.601,7.818s-1.662,5.755-2.434,7.138  c-3.218,5.768-11.046,16.768-16.968,23.844c-1.935,2.312-4.247,5.241-5.141,6.511c-3.143,4.467-11.019,13.421-14.548,16.538  c-5.807,5.13-8.853,6.925-14.433,8.506c-7.795,2.208-15.9,4.204-17.07,4.204c-0.578,0-3.115,1.345-5.639,2.988  c-5.505,3.585-13.59,7.835-14.907,7.835c-1.027,0-8.639,7.55-14.182,14.069c-3.292,3.871-9.615,9.74-10.495,9.74  c-0.229,0-1.579,1.104-3.002,2.452c-1.422,1.349-3.236,2.852-4.031,3.339c-0.796,0.486-1.733,1.422-2.084,2.078  c-1.003,1.873-4.984,3.621-7.271,3.192l-1.911-0.358l0.851,2.036c1.265,3.026,2.299,4.521,5.489,7.935  c3.066,3.282,4.987,6.805,5.007,9.184c0.015,1.841-1.939,3.42-5.609,4.533C57.422,576.109,47.797,576.466,44.627,575.563  L44.627,575.563z M46.035,231.27c2.486-1.039,8.933-5.136,8.933-5.677c0-0.218-0.579-0.541-1.288-0.719  c-0.708-0.178-1.418-0.82-1.576-1.427c-0.159-0.607-0.492-1.068-0.741-1.024c-2.156,0.38-2.486-0.029-2.225-2.754  c0.144-1.488,0.081-2.706-0.139-2.706c-0.219,0-1.271,0.966-2.337,2.146c-3.568,3.95-6.066,10.525-4.646,12.235  C42.83,232.326,43.538,232.313,46.035,231.27L46.035,231.27z M64.845,218.46c1.345-0.931,1.408-1.112,0.65-1.869  c-0.461-0.462-0.905-0.749-0.987-0.64c-1.115,1.49-2.505,3.691-2.505,3.968C62.003,220.313,62.642,219.985,64.845,218.46  L64.845,218.46z M142.609,205.877c3.535-1.247,13.224-2.928,19.502-3.383l5.682-0.412l-0.155-1.486  c-0.47-4.49-8.115-16.969-14.672-23.946c-1.119-1.19-2.469-2.834-3-3.653c-1.199-1.847-2.244-1.866-7.335-0.135  c-2.188,0.744-4.301,1.353-4.694,1.353c-0.395,0-1.144,0.376-1.664,0.835c-2.355,2.075-6.972,5.491-8.852,6.549  c-1.134,0.639-2.714,1.674-3.51,2.3c-1.539,1.21-2.926,1.494-2.926,0.598c0-1.123-2.126-0.47-4.847,1.488  c-4.674,3.364-7.311,5.622-7.656,6.556c-0.819,2.217,2.172,7.415,5.343,9.286c1.615,0.953,2.152,1.033,3.417,0.509  c0.825-0.342,1.92-1.085,2.434-1.652c0.91-1.006,0.987-0.985,3.241,0.861c1.431,1.172,2.637,1.767,3.17,1.562  c0.924-0.354,8.973,1.537,11.832,2.78C140.1,206.833,139.9,206.833,142.609,205.877L142.609,205.877z M116.115,181.488  c1.34-1.02,3.044-2.272,3.788-2.785s2.352-1.732,3.573-2.711l2.221-1.778l-0.686-2.644c-0.378-1.454-0.857-4.011-1.065-5.682  c-0.209-1.671-0.534-3.032-0.724-3.025c-0.188,0.008-1.439,0.858-2.778,1.892s-3.287,2.456-4.329,3.163s-2.33,1.773-2.862,2.369  c-0.934,1.044-0.931,1.094,0.08,1.358c0.577,0.15,1.478,0.929,2.003,1.729c0.911,1.391,0.91,1.592-0.01,4.512  c-0.53,1.682-1.328,3.612-1.773,4.292C112.433,183.889,113.251,183.668,116.115,181.488z M130.185,167.363  c0-2.162-1.517-5.649-2.616-6.016c-1.555-0.519-2.236,5.119-0.901,7.455c0.426,0.744,0.782,1.92,0.793,2.612  c0.019,1.228,0.053,1.219,1.372-0.349C129.765,169.957,130.185,168.809,130.185,167.363L130.185,167.363z M32.93,165.953  c-0.367-0.684-1.23,0.137-1.23,1.168c0,1.536,0.777,1.885,1.13,0.507C33.007,166.935,33.053,166.182,32.93,165.953L32.93,165.953z   M152.912,147.119c0-0.245-0.582-1.075-1.294-1.843c-1.149-1.24-1.451-1.324-2.706-0.753c-1.5,0.684-1.889,1.552-0.694,1.552  c0.395,0,1.286,0.606,1.982,1.347c0.967,1.028,1.435,1.204,1.988,0.745C152.586,147.837,152.912,147.365,152.912,147.119z   M159.018,142.829c0.438,0,1.097-0.723,1.463-1.605c1.197-2.89,3.904-2.644,5.777,0.526c0.526,0.892,1.172,1.62,1.434,1.62  c0.463,0,9.026-5.825,9.571-6.511c0.148-0.188,2.097-1.587,4.329-3.11c2.232-1.524,5.186-3.574,6.564-4.557s4.545-3.222,7.035-4.978  c5.47-3.856,5.048-3.503,4.652-3.899c-0.774-0.773-6.507-0.146-10.716,1.172c-4.447,1.394-16.09,6.897-20.082,9.493  c-1.097,0.713-4.263,2.743-7.034,4.513c-2.773,1.769-5.956,3.921-7.073,4.782l-2.032,1.566l1.127,1.583l1.127,1.583l1.529-1.09  C157.531,143.319,158.578,142.829,159.018,142.829L159.018,142.829z M62.441,133.608c1.549-1.442,1.494-1.948-0.256-2.388  c-1.054-0.264-1.729-0.074-2.511,0.708C57.45,134.154,60.118,135.773,62.441,133.608L62.441,133.608z M72.187,131.057  c0.353-2.479-2.832-2.199-3.768,0.331c-0.425,1.149-0.329,1.214,1.571,1.057C71.615,132.31,72.048,132.037,72.187,131.057  L72.187,131.057z M212.112,111.984c1.991-1.488,3.832-2.705,4.091-2.705c0.26,0,0.553-0.186,0.651-0.411  c0.1-0.226,2.071-1.748,4.382-3.382s6.372-4.554,9.025-6.488s6.21-4.492,7.902-5.683c1.693-1.19,4.645-3.32,6.557-4.734  c1.914-1.414,3.576-2.57,3.696-2.57c0.119,0,2.36-1.574,4.98-3.497c2.62-1.924,5.494-4.003,6.387-4.62s3.767-2.696,6.387-4.619  c2.62-1.924,4.859-3.497,4.977-3.497c0.118,0,2.357-1.574,4.978-3.498c2.619-1.923,5.561-4.054,6.535-4.734  c0.974-0.681,3.092-2.212,4.707-3.402c1.613-1.19,3.738-2.722,4.722-3.402c0.982-0.681,3.93-2.812,6.55-4.734  c2.619-1.924,4.859-3.497,4.977-3.497c0.221,0,8.896-6.299,10.822-7.858c1.082-0.875,1.082-0.875,0-0.521  c-0.595,0.195-1.935,0.474-2.976,0.618l-1.895,0.264l1.201-1.06c0.66-0.582,2.809-1.379,4.774-1.77  c4.653-0.925,5.817-2.384,6.115-7.663l0.208-3.674l-2.361-2.357c-1.749-1.747-2.957-2.458-4.661-2.744  c-4.875-0.818-7.991,0.587-18.545,8.367c-14.823,10.928-23.834,17.519-25.153,18.398c-0.669,0.446-1.795,1.249-2.501,1.784  c-1.33,1.007-10.334,7.547-13.189,9.579c-2.51,1.787-11.839,8.575-12.445,9.057c-0.298,0.236-1.881,1.396-3.518,2.576  c-1.637,1.182-3.058,2.334-3.156,2.563c-0.1,0.229-0.406,0.415-0.682,0.415s-2.508,1.522-4.961,3.384  c-2.452,1.86-5.163,3.87-6.023,4.464c-2.277,1.574-3.934,2.776-10.061,7.304c-3.021,2.232-5.902,4.302-6.404,4.6  c-1.003,0.596-9.281,6.644-10.049,7.343c-0.454,0.413,0.8,2.487,5.376,8.892c1.063,1.487,2.467,3.493,3.118,4.457  c0.652,0.964,1.334,1.755,1.514,1.759C208.346,114.688,210.121,113.473,212.112,111.984z"/>
</svg>